# File created by Blade
# Date/Time:  Wed Jan 21 14:37:15 2015
# Frame Rate: 120.000 fps
#------------------------------------------------------
:FULLY-SPECIFIED
:DEGREES
442
root 18.438295 35.580138 -21.544065 -174.530538 -1.548340 -178.973788
Spine -18.606520 -4.179049 4.134626
Head 5.503523 6.113585 -5.455743
LeftShoulder 28.621254 -62.756593 -0.273655
LeftArm 66.814281 45.727866 -62.045088
LeftForeArm 27.589151 -0.000000 41.423152
LeftHand 1.020377 -0.000000 -6.797619
LeftHandThumb1 -26.253704 0.000000 33.147579
RightShoulder 14.980684 1.576970 -1.052587
RightArm 51.367338 -29.486090 57.529025
RightForeArm 50.127872 -0.000000 111.203673
RightHand 4.054368 -0.000000 1.728205
RightHandThumb1 -24.326973 -0.000000 -32.862282
LeftUpLeg 1.638626 13.103031 1.098204
LeftLeg -6.155798 -0.000000 0.000000
LeftFoot -19.568413 29.044164 -12.217063
LeftToeBase 26.353591 -0.000000 -0.000000
RightUpLeg 0.815728 -9.796888 0.573852
RightLeg -3.453731 -0.000000 0.000000
RightFoot -19.547330 -25.484739 13.884426
RightToeBase 23.862212 -0.000000 -0.000000
443
root 18.443067 35.580874 -21.560096 -174.512735 -1.331909 -178.962585
Spine -18.647286 -4.238823 4.170961
Head 5.457370 6.387898 -5.491736
LeftShoulder 28.609383 -63.160225 -0.124572
LeftArm 66.392114 45.815502 -62.846356
LeftForeArm 28.059288 -0.000000 41.817712
LeftHand 0.880061 0.000000 -7.195458
LeftHandThumb1 -26.253704 0.000000 33.147579
RightShoulder 15.070322 1.662949 -1.052004
RightArm 51.154940 -29.366863 57.493024
RightForeArm 50.390796 -0.000000 111.665616
RightHand 4.123048 -0.000000 1.762108
RightHandThumb1 -24.326973 -0.000000 -32.862282
LeftUpLeg 1.671468 13.223449 1.106673
LeftLeg -6.137192 -0.000000 0.000000
LeftFoot -19.634213 29.108427 -12.311568
LeftToeBase 26.446176 -0.000000 -0.000000
RightUpLeg 0.806765 -9.631860 0.574945
RightLeg -3.466234 -0.000000 0.000000
RightFoot -19.531215 -25.427912 13.896699
RightToeBase 23.856682 -0.000000 -0.000000
444
root 18.446443 35.581061 -21.573305 -174.499334 -1.176510 -178.953612
Spine -18.680814 -4.290257 4.184023
Head 5.418466 6.548608 -5.505568
LeftShoulder 28.924980 -63.599004 -0.273218
LeftArm 65.868162 45.895004 -63.716178
LeftForeArm 28.772737 -0.000000 42.154561
LeftHand 0.992962 -0.000000 -7.600788
LeftHandThumb1 -26.253704 0.000000 33.147579
RightShoulder 15.086448 1.650152 -1.061003
RightArm 51.025884 -29.141935 57.400903
RightForeArm 50.592558 -0.000000 112.117683
RightHand 4.158002 -0.000000 1.879283
RightHandThumb1 -24.326973 -0.000000 -32.862282
LeftUpLeg 1.692317 13.273817 1.114581
LeftLeg -6.113709 -0.000000 0.000000
LeftFoot -19.704800 29.177119 -12.373757
LeftToeBase 26.449043 -0.000000 -0.000000
RightUpLeg 0.804372 -9.537442 0.573244
RightLeg -3.479487 -0.000000 0.000000
RightFoot -19.512382 -25.365926 13.892473
RightToeBase 23.913859 -0.000000 -0.000000
445
root 18.450795 35.580885 -21.586468 -174.475292 -1.004820 -178.932003
Spine -18.720519 -4.341598 4.203353
Head 5.354542 6.713185 -5.482434
LeftShoulder 29.238549 -64.046376 -0.430335
LeftArm 65.426947 46.020360 -64.457609
LeftForeArm 29.556149 0.000000 42.450824
LeftHand 0.983098 0.000000 -7.959307
LeftHandThumb1 -26.253704 0.000000 33.147579
RightShoulder 15.095502 1.615589 -1.065367
RightArm 50.947018 -28.879360 57.273899
RightForeArm 50.376802 -0.000000 112.612272
RightHand 3.969930 -0.000000 1.521219
RightHandThumb1 -24.326973 -0.000000 -32.862282
LeftUpLeg 1.710077 13.366722 1.131148
LeftLeg -6.105362 -0.000000 0.000000
LeftFoot -19.763724 29.257343 -12.411388
LeftToeBase 26.433122 -0.000000 -0.000000
RightUpLeg 0.781717 -9.424885 0.586637
RightLeg -3.478556 -0.000000 0.000000
RightFoot -19.490729 -25.288171 13.914073
RightToeBase 23.884719 -0.000000 -0.000000
